<mxfile host="app.diagrams.net" agent="Mozilla/5.0 (X11; Linux x86_64) AppleWebKit/537.36 (KHTML, like Gecko) Chrome/128.0.0.0 Safari/537.36" version="24.7.12">
  <diagram name="Page-1" id="JdbE5H1p657IpXPrCgBd">
    <mxGraphModel dx="1434" dy="788" grid="1" gridSize="10" guides="1" tooltips="1" connect="1" arrows="1" fold="1" page="1" pageScale="1" pageWidth="827" pageHeight="1169" background="none" math="0" shadow="0">
      <root>
        <mxCell id="0" />
        <mxCell id="1" parent="0" />
        <mxCell id="A8gqWdwiHM8_fTsKYuB1-10" value="" style="edgeStyle=orthogonalEdgeStyle;rounded=1;orthogonalLoop=1;jettySize=auto;html=1;labelBackgroundColor=none;strokeColor=#E07A5F;fontColor=default;align=center;fontStyle=1" edge="1" parent="1" source="A8gqWdwiHM8_fTsKYuB1-1" target="A8gqWdwiHM8_fTsKYuB1-2">
          <mxGeometry relative="1" as="geometry" />
        </mxCell>
        <mxCell id="A8gqWdwiHM8_fTsKYuB1-1" value="START" style="ellipse;whiteSpace=wrap;html=1;rounded=1;labelBackgroundColor=none;fillColor=#F2CC8F;strokeColor=#E07A5F;fontColor=#393C56;align=center;fontStyle=1" vertex="1" parent="1">
          <mxGeometry x="354" y="118" width="120" height="80" as="geometry" />
        </mxCell>
        <mxCell id="A8gqWdwiHM8_fTsKYuB1-9" value="" style="edgeStyle=orthogonalEdgeStyle;rounded=1;orthogonalLoop=1;jettySize=auto;html=1;labelBackgroundColor=none;strokeColor=#E07A5F;fontColor=default;align=center;fontStyle=1" edge="1" parent="1" source="A8gqWdwiHM8_fTsKYuB1-2" target="A8gqWdwiHM8_fTsKYuB1-3">
          <mxGeometry relative="1" as="geometry" />
        </mxCell>
        <mxCell id="A8gqWdwiHM8_fTsKYuB1-2" value="INPUT P, T, R" style="shape=parallelogram;perimeter=parallelogramPerimeter;whiteSpace=wrap;html=1;fixedSize=1;rounded=1;labelBackgroundColor=none;fillColor=#F2CC8F;strokeColor=#E07A5F;fontColor=#393C56;align=center;fontStyle=1" vertex="1" parent="1">
          <mxGeometry x="299" y="268" width="230" height="60" as="geometry" />
        </mxCell>
        <mxCell id="A8gqWdwiHM8_fTsKYuB1-8" value="" style="edgeStyle=orthogonalEdgeStyle;rounded=1;orthogonalLoop=1;jettySize=auto;html=1;labelBackgroundColor=none;strokeColor=#E07A5F;fontColor=default;align=center;fontStyle=1" edge="1" parent="1" source="A8gqWdwiHM8_fTsKYuB1-3" target="A8gqWdwiHM8_fTsKYuB1-4">
          <mxGeometry relative="1" as="geometry" />
        </mxCell>
        <mxCell id="A8gqWdwiHM8_fTsKYuB1-3" value="SI = ( P * T * R ) / 100" style="rounded=1;whiteSpace=wrap;html=1;labelBackgroundColor=none;fillColor=#F2CC8F;strokeColor=#E07A5F;fontColor=#393C56;align=center;fontStyle=1" vertex="1" parent="1">
          <mxGeometry x="304" y="398" width="220" height="60" as="geometry" />
        </mxCell>
        <mxCell id="A8gqWdwiHM8_fTsKYuB1-7" value="" style="edgeStyle=orthogonalEdgeStyle;rounded=1;orthogonalLoop=1;jettySize=auto;html=1;labelBackgroundColor=none;strokeColor=#E07A5F;fontColor=default;align=center;fontStyle=1" edge="1" parent="1" source="A8gqWdwiHM8_fTsKYuB1-4" target="A8gqWdwiHM8_fTsKYuB1-5">
          <mxGeometry relative="1" as="geometry" />
        </mxCell>
        <mxCell id="A8gqWdwiHM8_fTsKYuB1-4" value="OUTPUT SI" style="shape=parallelogram;perimeter=parallelogramPerimeter;whiteSpace=wrap;html=1;fixedSize=1;rounded=1;labelBackgroundColor=none;fillColor=#F2CC8F;strokeColor=#E07A5F;fontColor=#393C56;align=center;fontStyle=1" vertex="1" parent="1">
          <mxGeometry x="299" y="518" width="230" height="60" as="geometry" />
        </mxCell>
        <mxCell id="A8gqWdwiHM8_fTsKYuB1-5" value="END" style="ellipse;whiteSpace=wrap;html=1;rounded=1;labelBackgroundColor=none;fillColor=#F2CC8F;strokeColor=#E07A5F;fontColor=#393C56;align=center;fontStyle=1" vertex="1" parent="1">
          <mxGeometry x="354" y="628" width="120" height="80" as="geometry" />
        </mxCell>
        <mxCell id="A8gqWdwiHM8_fTsKYuB1-11" value="&lt;h1 style=&quot;margin-top: 0px;&quot;&gt;Calculate Simple Interest from Principal (P), Rate (R), &amp;amp; Time (T)&lt;br&gt;&lt;/h1&gt;" style="text;html=1;whiteSpace=wrap;overflow=hidden;rounded=1;labelBackgroundColor=none;fontColor=#393C56;align=center;fontStyle=0" vertex="1" parent="1">
          <mxGeometry x="41" y="40" width="760" height="50" as="geometry" />
        </mxCell>
      </root>
    </mxGraphModel>
  </diagram>
</mxfile>
